<svg viewBox="0 0 392 278" xmlns="http://www.w3.org/2000/svg">
  <defs>
    <linearGradient id="gradient" x1="0%" y1="0%" x2="100%" y2="100%" gradientTransform="rotate(-15)">
      <stop offset="0%" stop-color="#ffaa41"/>
      <stop offset="100%" stop-color="#d6110f"/>
    </linearGradient>
  </defs>
  <path d="M 0 0 L 64 0 L 64 278 L 0 278 L 0 258 L 38 258 L 38 20 L 0 20 M 392 0 L 328 0 L 328 278 L 392 278 L 392 258 L 354 258 L 354 20 L 392 20 M 83 42 L 123 42 L 216 201.664 L 196 236 L 83 42 Z M 309 42 L 284 84.92 L 259 42 L 309 42 Z M 255 134.708 L 201 42 L 239 42 L 274 102.089 L 255 134.708 Z M 226 184.496 L 143 42 L 181 42 L 245 151.876 L 226 184.496 Z" fill="url(#gradient)"/>
</svg>
